<svg xmlns="http://www.w3.org/2000/svg" xmlns:xlink="http://www.w3.org/1999/xlink" width="496" zoomAndPan="magnify" viewBox="0 0 372 360.749986" height="481" preserveAspectRatio="xMidYMid meet" version="1.0"><defs><clipPath id="9dbe04710d"><path d="M 36.179688 29.453125 L 347 29.453125 L 347 330.746094 L 36.179688 330.746094 Z M 36.179688 29.453125 " clip-rule="nonzero"/></clipPath></defs><g clip-path="url(#9dbe04710d)"><path fill="#f4ece4" d="M 178.664062 209.96875 C 177.347656 210.34375 176.96875 211.414062 176.40625 212.164062 C 168.746094 222.898438 160.148438 232.816406 151.863281 243.046875 C 148.851562 246.816406 145.585938 250.328125 142.257812 253.78125 C 140.625 255.476562 138.679688 256.984375 136.734375 258.425781 C 133.910156 260.5625 130.960938 260.875 127.949219 258.804688 C 125.25 256.921875 122.488281 255.164062 119.851562 253.152344 C 115.957031 250.140625 113.511719 246 111.4375 241.605469 C 110.433594 239.46875 110.558594 237.335938 111.691406 235.390625 C 113.007812 233.066406 114.390625 230.746094 116.085938 228.800781 C 123.050781 220.765625 130.144531 212.855469 137.175781 204.949219 C 138.996094 202.875 141.003906 200.929688 142.886719 198.859375 C 143.390625 198.292969 143.828125 197.730469 144.582031 196.722656 C 142.574219 196.976562 141.003906 197.101562 139.496094 197.351562 C 132.78125 198.542969 126.0625 199.675781 119.347656 200.929688 C 110.6875 202.5625 101.960938 204.257812 93.300781 205.953125 C 83.882812 207.773438 74.46875 209.71875 64.988281 210.972656 C 60.09375 211.601562 55.261719 212.667969 50.425781 213.484375 C 49.171875 213.671875 47.917969 213.859375 46.660156 213.921875 C 44.277344 214.050781 42.519531 212.917969 41.390625 210.910156 C 40.761719 209.84375 40.257812 208.652344 39.820312 207.457031 C 38.1875 202.6875 37.121094 197.730469 36.367188 192.707031 C 36.304688 192.207031 36.242188 191.703125 36.242188 191.199219 C 36.179688 188.0625 36.933594 185.738281 40.886719 184.988281 C 46.597656 183.917969 52.246094 182.539062 57.898438 181.410156 C 65.304688 179.964844 72.773438 178.523438 80.242188 177.203125 C 89.09375 175.695312 97.945312 174.253906 106.792969 172.871094 C 114.515625 171.679688 122.296875 170.550781 130.019531 169.355469 C 136.984375 168.289062 144.015625 167.222656 150.984375 166.03125 C 152.804688 165.714844 154.6875 165.464844 156.757812 164.585938 C 156.066406 163.960938 155.753906 163.457031 155.253906 163.144531 C 150.105469 159.691406 144.957031 156.238281 139.8125 152.785156 C 132.277344 147.703125 124.683594 142.679688 117.089844 137.597656 C 113.949219 135.460938 110.75 133.453125 107.609375 131.320312 C 105.664062 129.9375 103.65625 128.558594 101.898438 126.925781 C 100.769531 125.921875 99.890625 124.664062 99.199219 123.347656 C 98.070312 121.339844 98.195312 119.203125 99.511719 117.257812 C 100.203125 116.191406 100.957031 115.125 101.835938 114.308594 C 105.226562 111.234375 108.613281 108.28125 112.128906 105.332031 C 112.882812 104.703125 113.824219 104.265625 114.703125 103.761719 C 116.148438 103.011719 117.589844 102.949219 119.097656 103.636719 C 120.351562 104.203125 121.609375 104.894531 122.800781 105.582031 C 136.609375 113.429688 149.164062 122.972656 161.277344 133.140625 C 164.480469 135.839844 167.679688 138.476562 170.882812 141.171875 C 171.257812 141.488281 171.699219 141.738281 172.449219 142.242188 C 172.449219 141.425781 172.515625 140.984375 172.449219 140.546875 C 170.757812 132.007812 169.625 123.347656 168.808594 114.683594 C 168.183594 108.03125 167.492188 101.378906 166.925781 94.660156 C 166.550781 90.519531 166.363281 86.3125 166.175781 82.171875 C 165.671875 71.058594 165.167969 59.949219 164.855469 48.839844 C 164.730469 45.324219 165.042969 41.746094 165.234375 38.230469 C 165.296875 37.101562 165.546875 35.972656 165.734375 34.84375 C 165.984375 33.273438 166.925781 32.394531 168.433594 31.957031 C 169.375 31.703125 170.378906 31.453125 171.382812 31.328125 C 176.28125 30.761719 181.175781 30.199219 186.070312 29.757812 C 189.523438 29.445312 191.910156 30.824219 193.226562 34.089844 C 193.917969 35.847656 194.484375 37.730469 194.546875 39.550781 C 195.171875 49.40625 195.800781 59.261719 196.113281 69.113281 C 196.492188 80.601562 196.554688 92.152344 196.867188 103.636719 C 196.929688 106.902344 197.246094 110.230469 197.433594 113.492188 C 197.558594 115.375 197.746094 117.257812 197.683594 119.140625 C 197.558594 121.714844 197.871094 124.164062 198.75 126.863281 C 199.378906 126.421875 200.070312 126.171875 200.507812 125.667969 C 204.902344 120.773438 209.109375 115.753906 213.566406 110.855469 C 220.46875 103.261719 227.375 95.730469 234.402344 88.320312 C 236.976562 85.558594 239.992188 83.175781 242.816406 80.664062 C 243.695312 79.910156 244.636719 79.347656 245.640625 78.71875 C 246.519531 78.152344 247.523438 78.027344 248.527344 78.40625 C 252.355469 79.722656 256.058594 81.417969 259.199219 83.992188 C 263.214844 87.253906 264.535156 91.523438 263.464844 96.542969 C 262.839844 99.558594 261.519531 102.257812 259.953125 104.894531 C 257.441406 108.972656 254.679688 112.925781 251.476562 116.503906 C 244.257812 124.476562 236.914062 132.324219 229.695312 140.296875 C 226.308594 144.0625 223.042969 147.890625 219.714844 151.71875 C 219.277344 152.285156 218.964844 152.910156 218.398438 153.851562 C 220.972656 153.601562 223.042969 153.351562 225.175781 153.101562 C 230.074219 152.535156 234.96875 151.90625 239.863281 151.28125 C 245.136719 150.652344 250.410156 150.023438 255.683594 149.332031 C 260.703125 148.707031 265.726562 148.140625 270.746094 147.449219 C 275.519531 146.824219 280.226562 146.132812 284.996094 145.566406 C 289.890625 144.941406 294.789062 144.3125 299.683594 143.746094 C 302.949219 143.371094 306.210938 142.867188 309.476562 142.679688 C 316.316406 142.242188 323.097656 141.488281 329.9375 141.800781 C 332.074219 141.925781 334.207031 142.242188 336.339844 142.367188 C 337.722656 142.429688 338.789062 143.058594 339.542969 144.125 C 340.359375 145.253906 341.175781 146.382812 341.675781 147.703125 C 343.121094 151.59375 344.5625 155.484375 345.695312 159.503906 C 347.390625 165.589844 344.3125 169.042969 340.359375 171.175781 C 336.65625 173.1875 332.574219 174.253906 328.496094 174.945312 C 319.644531 176.386719 310.730469 177.515625 301.820312 178.144531 C 291.839844 178.898438 281.921875 179.589844 271.941406 180.40625 C 266.917969 180.84375 261.898438 181.597656 256.875 182.097656 C 252.859375 182.539062 248.839844 182.914062 244.824219 183.292969 C 241.058594 183.667969 237.292969 183.984375 233.589844 184.296875 C 233.085938 185.675781 234.214844 185.867188 234.84375 186.367188 C 243.570312 193.085938 252.355469 199.675781 261.082031 206.390625 C 264.597656 209.089844 267.921875 211.976562 271.375 214.800781 C 271.878906 215.179688 272.316406 215.617188 272.820312 216.058594 C 274.136719 217.375 274.324219 218.882812 273.699219 220.578125 C 273.570312 220.953125 273.382812 221.265625 273.195312 221.582031 C 271 225.097656 268.863281 228.675781 266.542969 232.1875 C 265.035156 234.449219 263.027344 236.207031 260.765625 237.648438 C 257.503906 239.722656 254.238281 240.097656 250.722656 238.214844 C 244.257812 234.761719 237.917969 231.058594 232.207031 226.476562 C 225.867188 221.394531 219.589844 216.308594 213.3125 211.285156 C 212.121094 210.34375 210.929688 209.464844 209.359375 208.273438 C 209.359375 209.464844 209.234375 210.15625 209.359375 210.785156 C 211.179688 219.195312 212.058718 227.734375 213.0625 236.269531 C 214.253906 246.4375 215.636719 256.542969 217.015625 266.710938 C 218.398438 277.257812 219.839844 287.738281 221.347656 298.285156 C 222.164062 304.1875 222.917969 310.085938 223.042969 315.984375 C 223.105469 318.496094 222.980469 321.070312 222.792969 323.582031 C 222.605469 326.53125 220.972656 328.476562 218.148438 329.417969 C 216.828125 329.859375 215.449219 330.359375 214.128906 330.421875 C 208.355469 330.675781 202.515625 331.050781 196.742188 329.859375 C 195.738281 329.671875 194.796875 329.355469 193.792969 329.167969 C 189.902344 328.226562 187.453125 325.839844 186.324219 321.949219 C 185.066406 317.804688 184.503906 313.539062 184.1875 309.269531 C 183.5 299.289062 182.746094 289.371094 182.054688 279.390625 C 181.742188 275.125 181.300781 270.792969 181.175781 266.523438 C 180.800781 254.910156 180.484375 243.300781 180.296875 231.625 C 180.171875 224.90625 179.859375 218.253906 179.042969 211.601562 C 178.980469 211.222656 178.789062 210.660156 178.664062 209.96875 Z M 178.664062 209.96875 " fill-opacity="1" fill-rule="nonzero"/></g></svg>
