<?xml version="1.0" encoding="UTF-8" standalone="no" ?>
<!DOCTYPE svg PUBLIC "-//W3C//DTD SVG 1.1//EN" "http://www.w3.org/Graphics/SVG/1.1/DTD/svg11.dtd">
<svg xmlns="http://www.w3.org/2000/svg" xmlns:xlink="http://www.w3.org/1999/xlink" version="1.1" width="1280" height="1024" viewBox="0 0 1280 1024" xml:space="preserve">
<desc>Created with Fabric.js 5.3.0</desc>
<defs>
</defs>
<g transform="matrix(1 0 0 1 640 512)" id="background-logo"  >
<rect style="stroke: none; stroke-width: 0; stroke-dasharray: none; stroke-linecap: butt; stroke-dashoffset: 0; stroke-linejoin: miter; stroke-miterlimit: 4; fill: rgb(255,255,255); fill-opacity: 0; fill-rule: nonzero; opacity: 1;"  paint-order="stroke"  x="-640" y="-512" rx="0" ry="0" width="1280" height="1024" />
</g>
<g transform="matrix(1.9211538461538462 0 0 1.9211538461538462 634.8184023661419 413.8284820419615)" id="text-logo"  >
<g style=""  paint-order="stroke"   >
		<g transform="matrix(1 0 0 1 0 0)" id="text-logo-path-0"  >
<path style="stroke: none; stroke-width: 0; stroke-dasharray: none; stroke-linecap: butt; stroke-dashoffset: 0; stroke-linejoin: miter; stroke-miterlimit: 4; fill: rgb(244,236,228); fill-rule: nonzero; opacity: 1;"  paint-order="stroke"  transform=" translate(-165.255, 16.1)" d="M 4.19 -8.88 L 1.7 -7.54 C 4.78 -2.53 8.74 0.46 14.17 0.46 C 18.68 0.46 23.74 -2.53 23.74 -7.87 C 23.74 -16.97 6.21 -19.27 6.21 -26.86 C 6.21 -30.27 9.34 -31.51 12.1 -31.51 C 16.1 -31.51 19.6 -28.8 21.25 -24.24 L 23.51 -26.27 C 21.21 -30.41 17.02 -32.89 12.47 -32.89 C 6.72 -32.89 3.17 -29.62 3.17 -25.58 C 3.17 -17.02 20.42 -14.67 20.42 -6.81 C 20.42 -3.17 17.3 -0.92 14.44 -0.92 C 9.84 -0.92 6.3 -3.91 4.19 -8.88 Z M 30.82 0 L 36.71 0 C 35.65 -0.87 35.37 -1.89 35.37 -3.27 L 35.37 -28.93 C 35.37 -30.31 35.65 -31.33 36.71 -32.2 L 30.82 -32.2 C 31.88 -31.33 32.15 -30.31 32.15 -28.93 L 32.15 -3.27 C 32.15 -1.89 31.88 -0.87 30.82 0 Z M 45.22 -28.93 L 45.22 -3.27 C 45.22 -1.89 44.94 -0.87 43.88 0 L 64.03 0 L 64.03 -3.13 C 61 -1.75 57.45 -1.38 52.62 -1.38 L 48.44 -1.38 L 48.44 -28.93 C 48.44 -30.27 48.71 -31.33 49.77 -32.2 L 43.88 -32.2 C 44.94 -31.33 45.22 -30.31 45.22 -28.93 Z M 70.98 -28.93 L 70.98 -3.27 C 70.98 -1.89 70.7 -0.87 69.64 0 L 89.79 0 L 89.79 -3.13 C 86.76 -1.75 83.21 -1.38 78.38 -1.38 L 74.2 -1.38 L 74.2 -28.93 C 74.2 -30.27 74.47 -31.33 75.53 -32.2 L 69.64 -32.2 C 70.7 -31.33 70.98 -30.31 70.98 -28.93 Z M 117.25 -3.04 C 117.76 -1.75 118.17 -0.87 117.12 0 L 123.46 0 C 121.95 -1.52 120.93 -3.04 119.78 -5.98 L 109.71 -32.2 L 106.03 -32.2 L 106.49 -31 L 97.24 -6.99 C 96.09 -4.05 94.76 -1.43 93.2 0 L 97.75 0 L 101.38 -11.09 L 114.17 -11.09 Z M 113.62 -12.47 L 101.84 -12.47 L 107.27 -28.98 Z M 126.27 -16.15 C 126.27 -6.26 132.3 0.69 141.5 0.69 C 145.68 0.69 149.27 -1.1 152.08 -4.32 L 152.08 -12.88 C 152.08 -14.26 152.35 -15.27 153.41 -16.15 L 146.97 -16.15 C 148.49 -14.9 148.86 -13.52 148.86 -11.59 L 148.86 -5.98 C 148.86 -3.08 145.36 -1.29 142.19 -1.29 C 134.32 -1.29 129.72 -7.41 129.72 -16.15 C 129.72 -25.16 134.27 -31.51 140.39 -31.51 C 144.26 -31.51 147.38 -28.8 149.04 -24.24 L 151.29 -26.27 C 148.99 -30.41 145.27 -32.89 140.48 -32.89 C 132.3 -32.89 126.27 -26.04 126.27 -16.15 Z M 161.14 -28.93 L 161.14 -3.27 C 161.14 -1.89 160.86 -0.87 159.8 0 L 181.33 0 L 181.33 -3.13 C 178.3 -1.75 174.75 -1.38 169.92 -1.38 L 164.36 -1.38 L 164.36 -16.7 L 176.59 -15.87 L 176.59 -18.17 L 164.36 -18.17 L 164.36 -30.82 L 169.92 -30.82 C 174.75 -30.82 178.3 -30.45 181.33 -29.07 L 181.33 -32.2 L 159.8 -32.2 C 160.86 -31.33 161.14 -30.31 161.14 -28.93 Z M 204.88 0 L 210.77 0 C 209.71 -0.87 209.44 -1.89 209.44 -3.27 L 209.44 -28.93 C 209.44 -30.31 209.71 -31.33 210.77 -32.2 L 204.88 -32.2 C 205.94 -31.33 206.22 -30.31 206.22 -28.93 L 206.22 -3.27 C 206.22 -1.89 205.94 -0.87 204.88 0 Z M 219.47 -31 L 219.47 0 L 222.23 0 L 220.98 -28.61 L 233.08 0 L 234.65 0 L 247.07 -28.61 L 247.07 -3.27 C 247.07 -1.93 246.79 -0.87 245.73 0 L 251.62 0 C 250.56 -0.87 250.29 -1.89 250.29 -3.27 L 250.29 -28.93 C 250.29 -30.27 250.56 -31.33 251.62 -32.2 L 247.07 -32.2 L 234.88 -4.14 L 223.01 -32.2 L 218.13 -32.2 C 218.64 -31.79 219.1 -31.37 219.47 -31 Z M 260.36 -31 L 260.36 0 L 263.12 0 L 261.88 -28.61 L 273.98 0 L 275.54 0 L 287.96 -28.61 L 287.96 -3.27 C 287.96 -1.93 287.68 -0.87 286.63 0 L 292.51 0 C 291.46 -0.87 291.18 -1.89 291.18 -3.27 L 291.18 -28.93 C 291.18 -30.27 291.46 -31.33 292.51 -32.2 L 287.96 -32.2 L 275.77 -4.14 L 263.9 -32.2 L 259.03 -32.2 C 259.53 -31.79 259.99 -31.37 260.36 -31 Z M 314.32 0.69 C 322.87 0.69 328.81 -6.21 328.81 -16.15 C 328.81 -25.94 322.83 -32.89 314.32 -32.89 C 305.72 -32.89 299.74 -26.04 299.74 -16.15 C 299.74 -6.26 305.76 0.69 314.32 0.69 Z M 314.32 -0.69 C 307.79 -0.69 303.19 -7.08 303.19 -16.15 C 303.19 -25.21 307.74 -31.51 314.32 -31.51 C 320.8 -31.51 325.36 -25.16 325.36 -16.15 C 325.36 -7.04 320.8 -0.69 314.32 -0.69 Z" stroke-linecap="round" />
</g>
</g>
</g>
<g transform="matrix(1.9211538461538462 0 0 1.9211538461538462 637.6422733847718 443.2051155927201)" id="logo-logo"  >
<g style=""  paint-order="stroke"   >
		<g transform="matrix(0.01645281550120048 0 0 0.6199941995359628 -0.2447420374399485 -77.62529002320184)"  >
<g style=""  paint-order="stroke"   >
		<g transform="matrix(0 1 -1 0 0 0)"  >
<rect style="stroke: none; stroke-width: 0; stroke-dasharray: none; stroke-linecap: butt; stroke-dashoffset: 0; stroke-linejoin: miter; stroke-miterlimit: 4; fill: rgb(244,236,228); fill-rule: nonzero; opacity: 1;"  paint-order="stroke"  x="-49.9773115" y="-49.9773115" rx="0" ry="0" width="99.954623" height="99.954623" />
</g>
</g>
</g>
		<g transform="matrix(0.01645281550120048 0 0 0.6199941995359628 0.2447420374399485 77.62529002320184)"  >
<g style=""  paint-order="stroke"   >
		<g transform="matrix(0 1 -1 0 0 0)"  >
<rect style="stroke: none; stroke-width: 0; stroke-dasharray: none; stroke-linecap: butt; stroke-dashoffset: 0; stroke-linejoin: miter; stroke-miterlimit: 4; fill: rgb(244,236,228); fill-rule: nonzero; opacity: 1;"  paint-order="stroke"  x="-49.9773115" y="-49.9773115" rx="0" ry="0" width="99.954623" height="99.954623" />
</g>
</g>
</g>
</g>
</g>
<g transform="matrix(1.2740981936840983 0 0 1.2740981936840983 635.5916667892188 768.3989067005409)" id="shape-6e2cb105-0567-4a92-8104-872ffc48e51f"  >
<g style=""  paint-order="stroke"   >
		<g transform="matrix(1 0 0 1 0 -2.9593100000000234)" id="path-01"  >
<path style="stroke: none; stroke-width: 1; stroke-dasharray: none; stroke-linecap: butt; stroke-dashoffset: 0; stroke-linejoin: miter; stroke-miterlimit: 4; fill: rgb(244,236,228); fill-rule: nonzero; opacity: 1;"  paint-order="stroke"  transform=" translate(-125.00001, -57.79372160242691)" d="M 246.83537 32.65842 C 229.80012000000002 23.11607 209.69951 18.72216 187.95854000000003 19.86978 C 182.07278000000002 20.181199999999997 176.12137 20.91892 170.15315000000004 22.017699999999998 C 96.20885 -12.67564 28.4129 2.09681 3.18066 9.83588 C 2.0326500000000003 10.19613 0.9670900000000002 10.52437 0.000010000000000065512 10.83579 L 0.000010000000000065512 24.73922 C 0.81979 24.46062 1.88534 24.08356 3.18066 23.67367 C 21.067709999999998 17.836740000000002 81.78105000000001 1.883860000000002 149.34722 27.44434 C 145.90398 28.59235 142.46075 29.87086 139.03431999999998 31.28105 C 77.4852 11.5735 24.80635 23.80455 3.18065 30.77268 C 2.03264 31.15015 0.96708 31.5104 0 31.83863 L 0 45.82412 C 0.81978 45.5123 1.88533 45.11882 3.18065 44.6597 C 18.3794 39.41319 65.20531 26.214660000000002 121.06482 39.83949 C 117.73686 41.64317 114.42412 43.561319999999995 111.145 45.610769999999995 C 62.187979999999996 36.64243 21.52722 46.283249999999995 3.18065 52.136179999999996 C 2.03264 52.49684 0.96708 52.8575 0 53.18572 L 0 67.13839 C 0.81978 66.82657 1.88533 66.4495 3.18065 65.99078 C 15.93607 61.596470000000004 50.89119 51.62782 94.14338 56.34996 C 88.14233999999999 60.07179 82.42069 63.465790000000005 76.92801 66.63003 C 43.9727 65.81024 17.13292 72.41771 3.18066 76.79521 C 2.0326500000000003 77.17228 0.9670900000000002 77.51652 0.000010000000000065512 77.84474999999999 L 0.000010000000000065512 91.76418999999999 C 0.8358000000000001 91.45276999999999 1.90135 91.07569999999998 3.18066 90.64939999999999 C 11.42729 87.82940999999998 28.79077 82.74660999999999 51.20342 80.63191999999998 C 28.80678 92.01036999999998 12.739420000000003 97.97818999999998 3.180660000000003 100.97870999999998 C 2.0166400000000033 101.33936999999997 0.9670900000000033 101.66719999999998 0.000010000000003174137 101.94618999999997 L 0.000010000000003174137 115.58743999999997 C 0.9342700000000032 115.34126999999997 1.9998200000000033 115.06266999999997 3.180660000000003 114.71801999999997 C 18.772490000000005 110.29128999999996 56.056450000000005 96.86338999999997 114.96531 58.677989999999966 C 161.33251 28.641149999999964 212.61757 24.624309999999966 246.83537 48.086499999999965 C 247.76964 48.72574999999996 248.70469 49.39822999999996 249.62294 50.08670999999997 L 250.00002 49.578349999999965 L 250.00002 34.51089 C 248.96648000000002 33.855230000000006 247.90093000000002 33.248400000000004 246.83538000000001 32.65838 L 246.83538000000001 32.65842 z" stroke-linecap="round" />
</g>
		<g transform="matrix(1 0 0 1 10.255250000000018 21.748000533232847)" id="path-01"  >
<path style="stroke: none; stroke-width: 1; stroke-dasharray: none; stroke-linecap: butt; stroke-dashoffset: 0; stroke-linejoin: miter; stroke-miterlimit: 4; fill: rgb(244,236,228); fill-rule: nonzero; opacity: 1;"  paint-order="stroke"  transform=" translate(-135.25526000000002, -82.50103213565978)" d="M 189.43398 43.6598 C 162.92243 45.069599999999994 135.77202 55.41531 108.70249 74.45078 C 77.48521 96.38789 51.710989999999995 107.70109 32.88968 115.94772 C 30.98753 116.78431 29.20067 117.57127 27.47865 118.32541 C 24.986489999999996 119.4402 22.65844 120.48934 20.51052 121.50606 L 52.61322 121.50606 C 54.79396 120.50615 57.03955 119.45661000000001 59.384409999999995 118.32541 C 75.33729 110.70122 94.73340999999999 100.29026 116.24462 85.17357000000001 C 163.46361 51.988900000000015 210.86353 47.43088000000001 246.83535 72.45057000000001 C 247.76962 73.10623000000001 248.70467 73.77871000000002 249.62292 74.46720000000002 L 250 73.95884000000002 L 250 58.84214 C 248.95047 58.202890000000004 247.90091 57.56324 246.83536 56.95641 C 229.66883 47.135859999999994 210.05976 42.545019999999994 189.43396 43.65981 L 189.43398 43.6598 z" stroke-linecap="round" />
</g>
		<g transform="matrix(1 0 0 1 37.24231 33.833294034364286)" id="path-01"  >
<path style="stroke: none; stroke-width: 1; stroke-dasharray: none; stroke-linecap: butt; stroke-dashoffset: 0; stroke-linejoin: miter; stroke-miterlimit: 4; fill: rgb(244,236,228); fill-rule: nonzero; opacity: 1;"  paint-order="stroke"  transform=" translate(-162.24232, -94.58632563679123)" d="M 116.58885 94.33844 C 113.93257 96.04365 110.52216 98.17515 106.71866999999999 100.55243 C 98.34074999999999 105.78253000000001 87.84691999999998 112.32436 79.05910999999999 118.3254 C 77.46918999999998 119.40737 75.92809999999999 120.47332 74.48467 121.50605 L 98.04532999999999 121.50605 C 99.71771 120.4405 101.39009999999999 119.37453000000001 103.04566999999999 118.3254 C 106.75148999999999 115.98054 110.37484999999998 113.71815000000001 113.66997999999998 111.66869 C 117.52309999999999 109.27499999999999 120.96633999999997 107.11067 123.67143999999998 105.38905 C 170.39888999999997 75.40144 211.81456999999997 72.67992 246.83532999999997 97.24049 C 247.76959999999997 97.89654999999999 248.70464999999996 98.56863 249.63891999999998 99.27353 L 249.99997 98.79799 L 249.99997 83.59925 C 248.95044 82.92717 247.90088 82.27150999999999 246.83533 81.64827 C 209.07663 59.432559999999995 164.33298 63.71159 116.58882 94.33843999999999 L 116.58885 94.33843999999999 z" stroke-linecap="round" />
</g>
		<g transform="matrix(1 0 0 1 58.09747999999999 45.10654143286421)" id="path-01"  >
<path style="stroke: none; stroke-width: 1; stroke-dasharray: none; stroke-linecap: butt; stroke-dashoffset: 0; stroke-linejoin: miter; stroke-miterlimit: 4; fill: rgb(244,236,228); fill-rule: nonzero; opacity: 1;"  paint-order="stroke"  transform=" translate(-183.09749, -105.85957303529115)" d="M 120.45799 118.3254 C 119.04818 119.34173 117.62158 120.40768 116.19497 121.50605 L 139.11598 121.50605 C 140.88682 120.37485 142.65768 119.32531 144.41173 118.3254 C 179.20354 98.32245 210.78188 98.42092 241.71974 118.3254 C 243.29365 119.34173 244.85155 120.39126 246.40867 121.50605 L 250.00001 121.50605 L 250.00001 108.06174 C 248.95048 107.35684 247.88490000000002 106.68437 246.83537 106.04511 C 207.10888 81.45172 165.5627 85.48496999999999 120.45799000000001 118.32538 L 120.45799000000001 118.3254 z" stroke-linecap="round" />
</g>
</g>
</g>
<g transform="matrix(1.9211538461538462 0 0 1.9211538461538462 639.2245987303245 491.09953804811005)" id="tagline-8f13f6ae-3273-44a3-a867-b4a75955dfa7-logo"  >
<g style=""  paint-order="stroke"   >
		<g transform="matrix(1 0 0 1 5.684342e-14 0)" id="tagline-8f13f6ae-3273-44a3-a867-b4a75955dfa7-logo-path-0"  >
<path style="stroke: none; stroke-width: 0; stroke-dasharray: none; stroke-linecap: butt; stroke-dashoffset: 0; stroke-linejoin: miter; stroke-miterlimit: 4; fill: rgb(244,236,228); fill-rule: nonzero; opacity: 1;"  paint-order="stroke"  transform=" translate(-175.21, 5.665)" d="M 6.92 -0.86 C 7.06 -0.49 7.18 -0.25 6.88 0 L 8.67 0 C 8.24 -0.43 7.96 -0.86 7.63 -1.69 L 4.78 -9.1 L 3.74 -9.1 L 3.87 -8.76 L 1.26 -1.98 C 0.94 -1.14 0.56 -0.4 0.12 0 L 1.4 0 L 2.43 -3.13 L 6.05 -3.13 Z M 5.89 -3.52 L 2.56 -3.52 L 4.1 -8.19 Z M 13.52 0.2 C 15.28 0.2 16.52 -0.99 17.04 -3 L 16.71 -3 C 16.15 -1.29 15.08 -0.36 13.59 -0.36 C 11.75 -0.36 10.44 -2.09 10.44 -4.56 C 10.44 -7.11 11.73 -8.91 13.46 -8.91 C 14.56 -8.91 15.43 -8.14 15.9 -6.85 L 16.54 -7.42 C 15.89 -8.59 14.83 -9.29 13.48 -9.29 C 11.15 -9.29 9.46 -7.36 9.46 -4.56 C 9.46 -1.78 11.17 0.2 13.52 0.2 Z M 22.84 0.2 C 24.6 0.2 25.84 -0.99 26.36 -3 L 26.03 -3 C 25.47 -1.29 24.4 -0.36 22.91 -0.36 C 21.07 -0.36 19.76 -2.09 19.76 -4.56 C 19.76 -7.11 21.05 -8.91 22.78 -8.91 C 23.88 -8.91 24.75 -8.14 25.22 -6.85 L 25.86 -7.42 C 25.21 -8.59 24.15 -9.29 22.8 -9.29 C 20.47 -9.29 18.78 -7.36 18.78 -4.56 C 18.78 -1.78 20.49 0.2 22.84 0.2 Z M 32.23 0.2 C 34.64 0.2 36.32 -1.76 36.32 -4.56 C 36.32 -7.33 34.63 -9.29 32.23 -9.29 C 29.8 -9.29 28.11 -7.36 28.11 -4.56 C 28.11 -1.77 29.81 0.2 32.23 0.2 Z M 32.23 -0.2 C 30.38 -0.2 29.08 -2 29.08 -4.56 C 29.08 -7.12 30.37 -8.91 32.23 -8.91 C 34.06 -8.91 35.35 -7.11 35.35 -4.56 C 35.35 -1.99 34.06 -0.2 32.23 -0.2 Z M 38.71 -8.76 L 38.71 0 L 39.49 0 L 39.14 -8.09 L 42.56 0 L 43 0 L 46.51 -8.09 L 46.51 -0.92 C 46.51 -0.55 46.44 -0.25 46.14 0 L 47.8 0 C 47.5 -0.25 47.42 -0.53 47.42 -0.92 L 47.42 -8.18 C 47.42 -8.55 47.5 -8.85 47.8 -9.1 L 46.51 -9.1 L 43.07 -1.17 L 39.71 -9.1 L 38.34 -9.1 C 38.48 -8.98 38.61 -8.87 38.71 -8.76 Z M 50.28 -8.18 L 50.28 -0.92 C 50.28 -0.53 50.21 -0.25 49.91 0 L 51.57 0 C 51.27 -0.25 51.19 -0.53 51.19 -0.92 L 51.19 -3.51 L 52.87 -3.51 C 54.82 -3.51 55.98 -4.67 55.98 -6.31 C 55.98 -7.94 54.8 -9.1 52.87 -9.1 L 49.91 -9.1 C 50.21 -8.85 50.28 -8.57 50.28 -8.18 Z M 52.87 -3.9 L 51.19 -3.9 L 51.19 -8.71 L 52.87 -8.71 C 54.21 -8.71 55 -7.72 55 -6.31 C 55 -4.9 54.22 -3.9 52.87 -3.9 Z M 62.95 -0.86 C 63.09 -0.49 63.21 -0.25 62.91 0 L 64.7 0 C 64.27 -0.43 63.99 -0.86 63.66 -1.69 L 60.81 -9.1 L 59.77 -9.1 L 59.9 -8.76 L 57.29 -1.98 C 56.97 -1.14 56.59 -0.4 56.15 0 L 57.43 0 L 58.46 -3.13 L 62.08 -3.13 Z M 61.92 -3.52 L 58.59 -3.52 L 60.13 -8.19 Z M 65.49 -4.56 C 65.49 -1.77 67.2 0.2 69.8 0.2 C 70.98 0.2 71.99 -0.31 72.79 -1.22 L 72.79 -3.64 C 72.79 -4.03 72.87 -4.32 73.16 -4.56 L 71.34 -4.56 C 71.77 -4.21 71.88 -3.82 71.88 -3.28 L 71.88 -1.69 C 71.88 -0.87 70.89 -0.36 69.99 -0.36 C 67.77 -0.36 66.47 -2.09 66.47 -4.56 C 66.47 -7.11 67.76 -8.91 69.49 -8.91 C 70.58 -8.91 71.46 -8.14 71.93 -6.85 L 72.57 -7.42 C 71.92 -8.59 70.86 -9.29 69.51 -9.29 C 67.2 -9.29 65.49 -7.36 65.49 -4.56 Z M 75.78 -8.27 L 81.33 0 L 82.45 0 L 82.11 -0.51 L 82.11 -9.1 L 81.33 -9.1 L 81.67 -1.16 L 76.34 -9.1 L 74.97 -9.1 C 75.27 -8.85 75.35 -8.57 75.35 -8.18 L 75.35 0 L 76.13 0 Z M 84.86 -8.18 L 84.86 -0.92 C 84.86 -0.53 84.79 -0.25 84.49 0 L 90.57 0 L 90.57 -0.88 C 89.71 -0.49 88.71 -0.39 87.35 -0.39 L 85.77 -0.39 L 85.77 -4.72 L 89.23 -4.49 L 89.23 -5.14 L 85.77 -5.14 L 85.77 -8.71 L 87.35 -8.71 C 88.71 -8.71 89.71 -8.61 90.57 -8.22 L 90.57 -9.1 L 84.49 -9.1 C 84.79 -8.85 84.86 -8.57 84.86 -8.18 Z M 92.72 -8.76 L 92.72 0 L 93.5 0 L 93.15 -8.09 L 96.56 0 L 97.01 0 L 100.52 -8.09 L 100.52 -0.92 C 100.52 -0.55 100.44 -0.25 100.14 0 L 101.8 0 C 101.5 -0.25 101.43 -0.53 101.43 -0.92 L 101.43 -8.18 C 101.43 -8.55 101.5 -8.85 101.8 -9.1 L 100.52 -9.1 L 97.07 -1.17 L 93.72 -9.1 L 92.34 -9.1 C 92.48 -8.98 92.61 -8.87 92.72 -8.76 Z M 104.22 -8.18 L 104.22 -0.92 C 104.22 -0.53 104.14 -0.25 103.84 0 L 109.93 0 L 109.93 -0.88 C 109.07 -0.49 108.07 -0.39 106.7 -0.39 L 105.13 -0.39 L 105.13 -4.72 L 108.59 -4.49 L 108.59 -5.14 L 105.13 -5.14 L 105.13 -8.71 L 106.7 -8.71 C 108.07 -8.71 109.07 -8.61 109.93 -8.22 L 109.93 -9.1 L 103.84 -9.1 C 104.14 -8.85 104.22 -8.57 104.22 -8.18 Z M 112.52 -8.27 L 118.07 0 L 119.18 0 L 118.85 -0.51 L 118.85 -9.1 L 118.07 -9.1 L 118.4 -1.16 L 113.07 -9.1 L 111.71 -9.1 C 112.01 -8.85 112.09 -8.57 112.09 -8.18 L 112.09 0 L 112.87 0 Z M 123.37 0 L 125.03 0 C 124.74 -0.25 124.66 -0.53 124.66 -0.92 L 124.66 -8.71 C 125.91 -8.7 126.83 -8.58 127.63 -8.22 L 127.63 -9.1 L 120.77 -9.1 L 120.77 -8.22 C 121.59 -8.58 122.53 -8.7 123.75 -8.71 L 123.75 -0.92 C 123.75 -0.55 123.67 -0.25 123.37 0 Z M 134.29 -2.31 C 134.29 -0.77 135.67 0.13 137.37 0.13 C 139.22 0.13 140.71 -0.77 140.71 -2.93 L 140.71 -4.55 L 141.64 -4.55 L 141.64 -4.91 L 138.81 -4.91 L 138.81 -4.55 L 139.74 -4.55 L 139.74 -2.77 C 139.74 -1.13 138.91 -0.26 137.37 -0.26 C 136.01 -0.26 135.27 -1.12 135.27 -2.31 C 135.27 -3.69 136.34 -4.55 137.79 -4.55 L 138.29 -4.55 L 138.29 -4.91 L 137.79 -4.91 C 136.4 -4.91 135.32 -5.75 135.32 -7.09 C 135.32 -8.14 136.05 -8.91 137.15 -8.91 C 138.22 -8.91 139.09 -8.14 139.49 -6.85 L 140.13 -7.42 C 139.56 -8.59 138.5 -9.29 137.25 -9.29 C 135.63 -9.29 134.41 -8.44 134.41 -7.06 C 134.41 -5.88 135.16 -4.98 136.59 -4.71 C 135.07 -4.42 134.29 -3.5 134.29 -2.31 Z M 149.06 -8.18 L 149.06 -0.92 C 149.06 -0.53 148.98 -0.25 148.68 0 L 154.77 0 L 154.77 -0.88 C 153.91 -0.49 152.91 -0.39 151.54 -0.39 L 149.97 -0.39 L 149.97 -4.72 L 153.43 -4.49 L 153.43 -5.14 L 149.97 -5.14 L 149.97 -8.71 L 151.54 -8.71 C 152.91 -8.71 153.91 -8.61 154.77 -8.22 L 154.77 -9.1 L 148.68 -9.1 C 148.98 -8.85 149.06 -8.57 149.06 -8.18 Z M 157.63 -9.1 L 155.96 -9.1 C 156.57 -8.71 157.2 -8.1 157.72 -7.37 L 159.72 -4.59 L 156.29 0.13 L 157.87 0.13 C 157.35 -0.43 157.85 -0.91 158.31 -1.68 L 159.93 -4.29 L 163.01 0 L 164.83 0 C 164.13 -0.34 163.44 -1 162.92 -1.73 L 160.78 -4.69 L 163.87 -9.1 L 162.28 -9.1 C 162.83 -8.52 162.33 -8.05 161.88 -7.27 L 160.56 -5.02 Z M 166.63 -8.18 L 166.63 -0.92 C 166.63 -0.53 166.56 -0.25 166.26 0 L 167.92 0 C 167.62 -0.25 167.54 -0.53 167.54 -0.92 L 167.54 -3.51 L 169.22 -3.51 C 171.17 -3.51 172.33 -4.67 172.33 -6.31 C 172.33 -7.94 171.15 -9.1 169.22 -9.1 L 166.26 -9.1 C 166.56 -8.85 166.63 -8.57 166.63 -8.18 Z M 169.22 -3.9 L 167.54 -3.9 L 167.54 -8.71 L 169.22 -8.71 C 170.56 -8.71 171.35 -7.72 171.35 -6.31 C 171.35 -4.9 170.57 -3.9 169.22 -3.9 Z M 174.58 -8.18 L 174.58 -0.92 C 174.58 -0.53 174.5 -0.25 174.2 0 L 180.28 0 L 180.28 -0.88 C 179.43 -0.49 178.43 -0.39 177.06 -0.39 L 175.49 -0.39 L 175.49 -4.72 L 178.95 -4.49 L 178.95 -5.14 L 175.49 -5.14 L 175.49 -8.71 L 177.06 -8.71 C 178.43 -8.71 179.43 -8.61 180.28 -8.22 L 180.28 -9.1 L 174.2 -9.1 C 174.5 -8.85 174.58 -8.57 174.58 -8.18 Z M 182.47 -8.18 L 182.47 -0.92 C 182.47 -0.53 182.39 -0.25 182.09 0 L 183.76 0 C 183.46 -0.25 183.38 -0.53 183.38 -0.92 L 183.38 -4.13 L 184.16 -4.13 L 186.72 -0.74 C 186.95 -0.43 187.2 -0.25 186.9 0 L 188.81 0 C 188.51 -0.25 188.11 -0.43 187.88 -0.74 L 185.33 -4.13 C 187.02 -4.17 187.99 -5.19 187.99 -6.62 C 187.99 -8.07 186.94 -9.1 185.22 -9.1 L 182.09 -9.1 C 182.39 -8.85 182.47 -8.57 182.47 -8.18 Z M 185.16 -4.52 L 183.38 -4.52 L 183.38 -8.71 L 185.16 -8.71 C 186.33 -8.71 187.02 -7.85 187.02 -6.62 C 187.02 -5.4 186.34 -4.52 185.16 -4.52 Z M 192.14 0 L 193.8 0 C 193.51 -0.25 193.43 -0.53 193.43 -0.92 L 193.43 -8.71 C 194.68 -8.7 195.6 -8.58 196.4 -8.22 L 196.4 -9.1 L 189.54 -9.1 L 189.54 -8.22 C 190.36 -8.58 191.3 -8.7 192.52 -8.71 L 192.52 -0.92 C 192.52 -0.55 192.44 -0.25 192.14 0 Z M 197.95 0 L 199.62 0 C 199.32 -0.25 199.24 -0.53 199.24 -0.92 L 199.24 -8.18 C 199.24 -8.57 199.32 -8.85 199.62 -9.1 L 197.95 -9.1 C 198.25 -8.85 198.33 -8.57 198.33 -8.18 L 198.33 -0.92 C 198.33 -0.53 198.25 -0.25 197.95 0 Z M 202.07 -2.51 L 201.37 -2.13 C 202.24 -0.72 203.36 0.13 204.89 0.13 C 206.17 0.13 207.6 -0.72 207.6 -2.22 C 207.6 -4.8 202.64 -5.45 202.64 -7.59 C 202.64 -8.55 203.53 -8.91 204.31 -8.91 C 205.44 -8.91 206.43 -8.14 206.9 -6.85 L 207.53 -7.42 C 206.88 -8.59 205.7 -9.29 204.41 -9.29 C 202.79 -9.29 201.79 -8.37 201.79 -7.23 C 201.79 -4.81 206.66 -4.15 206.66 -1.92 C 206.66 -0.9 205.78 -0.26 204.97 -0.26 C 203.67 -0.26 202.67 -1.11 202.07 -2.51 Z M 210 -8.18 L 210 -0.92 C 210 -0.53 209.92 -0.25 209.63 0 L 215.71 0 L 215.71 -0.88 C 214.85 -0.49 213.85 -0.39 212.49 -0.39 L 210.91 -0.39 L 210.91 -4.72 L 214.37 -4.49 L 214.37 -5.14 L 210.91 -5.14 L 210.91 -8.71 L 212.49 -8.71 C 213.85 -8.71 214.85 -8.61 215.71 -8.22 L 215.71 -9.1 L 209.63 -9.1 C 209.92 -8.85 210 -8.57 210 -8.18 Z M 222.37 0 L 224.03 0 C 223.73 -0.25 223.65 -0.53 223.65 -0.92 L 223.65 -8.18 C 223.65 -8.57 223.73 -8.85 224.03 -9.1 L 222.37 -9.1 C 222.66 -8.85 222.74 -8.57 222.74 -8.18 L 222.74 -0.92 C 222.74 -0.53 222.66 -0.25 222.37 0 Z M 226.49 -8.76 L 226.49 0 L 227.27 0 L 226.92 -8.09 L 230.33 0 L 230.78 0 L 234.29 -8.09 L 234.29 -0.92 C 234.29 -0.55 234.21 -0.25 233.91 0 L 235.57 0 C 235.27 -0.25 235.2 -0.53 235.2 -0.92 L 235.2 -8.18 C 235.2 -8.55 235.27 -8.85 235.57 -9.1 L 234.29 -9.1 L 230.84 -1.17 L 227.49 -9.1 L 226.11 -9.1 C 226.25 -8.98 226.38 -8.87 226.49 -8.76 Z M 238.04 -8.76 L 238.04 0 L 238.82 0 L 238.47 -8.09 L 241.89 0 L 242.33 0 L 245.84 -8.09 L 245.84 -0.92 C 245.84 -0.55 245.77 -0.25 245.47 0 L 247.13 0 C 246.83 -0.25 246.75 -0.53 246.75 -0.92 L 246.75 -8.18 C 246.75 -8.55 246.83 -8.85 247.13 -9.1 L 245.84 -9.1 L 242.4 -1.17 L 239.04 -9.1 L 237.67 -9.1 C 237.81 -8.98 237.94 -8.87 238.04 -8.76 Z M 253.29 0.2 C 255.71 0.2 257.39 -1.76 257.39 -4.56 C 257.39 -7.33 255.7 -9.29 253.29 -9.29 C 250.86 -9.29 249.17 -7.36 249.17 -4.56 C 249.17 -1.77 250.87 0.2 253.29 0.2 Z M 253.29 -0.2 C 251.45 -0.2 250.15 -2 250.15 -4.56 C 250.15 -7.12 251.43 -8.91 253.29 -8.91 C 255.13 -8.91 256.41 -7.11 256.41 -4.56 C 256.41 -1.99 255.13 -0.2 253.29 -0.2 Z M 259.82 -8.18 L 259.82 -0.92 C 259.82 -0.55 259.74 -0.25 259.44 0 L 262.83 0 C 264.56 0 265.73 -1.03 265.73 -2.48 C 265.73 -3.63 264.97 -4.5 263.74 -4.78 C 264.72 -5.1 265.33 -5.88 265.33 -6.88 C 265.33 -8.18 264.28 -9.1 262.73 -9.1 L 259.44 -9.1 C 259.74 -8.85 259.82 -8.57 259.82 -8.18 Z M 262.57 -4.97 L 260.73 -4.97 L 260.73 -8.71 L 262.63 -8.71 C 263.67 -8.71 264.36 -7.92 264.36 -6.84 C 264.36 -5.75 263.63 -4.97 262.57 -4.97 Z M 262.77 -0.39 L 260.73 -0.39 L 260.73 -4.58 L 262.69 -4.58 C 263.94 -4.58 264.76 -3.72 264.76 -2.48 C 264.76 -1.26 263.95 -0.39 262.77 -0.39 Z M 267.76 0 L 269.43 0 C 269.13 -0.25 269.05 -0.53 269.05 -0.92 L 269.05 -8.18 C 269.05 -8.57 269.13 -8.85 269.43 -9.1 L 267.76 -9.1 C 268.06 -8.85 268.14 -8.57 268.14 -8.18 L 268.14 -0.92 C 268.14 -0.53 268.06 -0.25 267.76 0 Z M 271.83 -8.18 L 271.83 -0.92 C 271.83 -0.53 271.75 -0.25 271.45 0 L 277.15 0 L 277.15 -0.88 C 276.29 -0.49 275.29 -0.39 273.92 -0.39 L 272.74 -0.39 L 272.74 -8.18 C 272.74 -8.55 272.82 -8.85 273.12 -9.1 L 271.45 -9.1 C 271.75 -8.85 271.83 -8.57 271.83 -8.18 Z M 278.71 0 L 280.37 0 C 280.07 -0.25 279.99 -0.53 279.99 -0.92 L 279.99 -8.18 C 279.99 -8.57 280.07 -8.85 280.37 -9.1 L 278.71 -9.1 C 279.01 -8.85 279.08 -8.57 279.08 -8.18 L 279.08 -0.92 C 279.08 -0.53 279.01 -0.25 278.71 0 Z M 282.78 -8.18 L 282.78 -0.92 C 282.78 -0.53 282.7 -0.25 282.4 0 L 288.48 0 L 288.48 -0.88 C 287.63 -0.49 286.62 -0.39 285.26 -0.39 L 283.69 -0.39 L 283.69 -4.72 L 287.14 -4.49 L 287.14 -5.14 L 283.69 -5.14 L 283.69 -8.71 L 285.26 -8.71 C 286.62 -8.71 287.63 -8.61 288.48 -8.22 L 288.48 -9.1 L 282.4 -9.1 C 282.7 -8.85 282.78 -8.57 282.78 -8.18 Z M 285.82 -10.05 L 286.21 -10.05 L 285.12 -11.53 L 284.35 -11.53 Z M 290.67 -8.18 L 290.67 -0.92 C 290.67 -0.53 290.59 -0.25 290.29 0 L 291.95 0 C 291.66 -0.25 291.58 -0.53 291.58 -0.92 L 291.58 -4.13 L 292.36 -4.13 L 294.92 -0.74 C 295.15 -0.43 295.4 -0.25 295.1 0 L 297.01 0 C 296.71 -0.25 296.31 -0.43 296.08 -0.74 L 293.53 -4.13 C 295.22 -4.17 296.19 -5.19 296.19 -6.62 C 296.19 -8.07 295.14 -9.1 293.42 -9.1 L 290.29 -9.1 C 290.59 -8.85 290.67 -8.57 290.67 -8.18 Z M 293.36 -4.52 L 291.58 -4.52 L 291.58 -8.71 L 293.36 -8.71 C 294.53 -8.71 295.22 -7.85 295.22 -6.62 C 295.22 -5.4 294.54 -4.52 293.36 -4.52 Z M 299.07 -8.18 L 299.07 -0.92 C 299.07 -0.53 298.99 -0.25 298.69 0 L 304.77 0 L 304.77 -0.88 C 303.91 -0.49 302.91 -0.39 301.55 -0.39 L 299.98 -0.39 L 299.98 -4.72 L 303.43 -4.49 L 303.43 -5.14 L 299.98 -5.14 L 299.98 -8.71 L 301.55 -8.71 C 302.91 -8.71 303.91 -8.61 304.77 -8.22 L 304.77 -9.1 L 298.69 -9.1 C 298.99 -8.85 299.07 -8.57 299.07 -8.18 Z M 311.17 -5.14 L 311.17 -4.75 L 315.03 -4.75 L 315.03 -5.14 Z M 322.53 -8.27 L 328.08 0 L 329.2 0 L 328.86 -0.51 L 328.86 -9.1 L 328.08 -9.1 L 328.42 -1.16 L 323.09 -9.1 L 321.72 -9.1 C 322.02 -8.85 322.1 -8.57 322.1 -8.18 L 322.1 0 L 322.88 0 Z M 331.21 0 L 332.88 0 C 332.58 -0.25 332.5 -0.53 332.5 -0.92 L 332.5 -8.18 C 332.5 -8.57 332.58 -8.85 332.88 -9.1 L 331.21 -9.1 C 331.51 -8.85 331.59 -8.57 331.59 -8.18 L 331.59 -0.92 C 331.59 -0.53 331.51 -0.25 331.21 0 Z M 338.96 0.2 C 340.72 0.2 341.96 -0.99 342.48 -3 L 342.15 -3 C 341.59 -1.29 340.52 -0.36 339.03 -0.36 C 337.19 -0.36 335.88 -2.09 335.88 -4.56 C 335.88 -7.11 337.17 -8.91 338.9 -8.91 C 340 -8.91 340.87 -8.14 341.34 -6.85 L 341.98 -7.42 C 341.33 -8.59 340.27 -9.29 338.92 -9.29 C 336.6 -9.29 334.91 -7.36 334.91 -4.56 C 334.91 -1.78 336.61 0.2 338.96 0.2 Z M 344.59 -8.18 L 344.59 -0.92 C 344.59 -0.53 344.51 -0.25 344.21 0 L 350.3 0 L 350.3 -0.88 C 349.44 -0.49 348.44 -0.39 347.07 -0.39 L 345.5 -0.39 L 345.5 -4.72 L 348.96 -4.49 L 348.96 -5.14 L 345.5 -5.14 L 345.5 -8.71 L 347.07 -8.71 C 348.44 -8.71 349.44 -8.61 350.3 -8.22 L 350.3 -9.1 L 344.21 -9.1 C 344.51 -8.85 344.59 -8.57 344.59 -8.18 Z" stroke-linecap="round" />
</g>
</g>
</g>
</svg>